<svg width="56" height="41" viewBox="0 0 56 41" fill="none" xmlns="http://www.w3.org/2000/svg">
<path d="M55.9952 16.8093C55.8931 14.7362 54.9905 12.7245 53.2915 10.8096C50.8292 8.03439 46.6367 5.44909 40.8302 3.1256C35.721 1.08077 30.2464 0 24.9985 0C19.2348 0 13.8974 1.30194 9.56048 3.7653C9.23119 3.93439 6.79783 5.23681 4.46625 7.89991C2.35521 10.3112 -0.0436907 14.3096 0.00854555 19.9824C0.00171832 20.0338 -0.00161592 28.34 0.000765678 28.3697C0.392141 33.5644 2.98887 37.5371 7.31258 39.5562C9.35313 40.509 11.7127 40.9713 14.1157 40.9713C17.7989 40.9712 21.5836 39.8849 24.4739 37.8135C32.0738 32.367 37.706 30.7275 43.3064 32.3306C46.982 33.3833 49.9995 33.1869 52.2747 31.7466C54.2495 30.4966 55.5346 28.3716 55.9911 25.6015C56.0017 25.5374 56.0024 16.8614 55.9952 16.8093ZM53.5476 18.1643C53.1432 20.6265 51.7685 23.5614 47.5161 23.5614C46.4363 23.5614 45.2204 23.3693 43.9018 22.9906C43.1784 22.783 42.4481 22.6248 41.7152 22.5127L51.1374 11.9902C53.0701 13.996 53.8918 16.0697 53.5476 18.1643ZM49.3599 10.4053L38.6893 22.322C34.4077 22.4381 30.0147 24.1235 24.6915 27.7083L43.3617 6.82597C45.7833 7.97961 47.7849 9.17676 49.3599 10.4053ZM39.9452 5.33652C40.3324 5.49148 40.7087 5.64771 41.0801 5.80458L18.614 30.9323C17.1808 31.337 15.6618 31.5548 14.1387 31.5548C12.5311 31.5548 10.8715 31.2992 9.32359 30.7292L33.9856 3.45538C36.0025 3.9309 38.0015 4.55869 39.9452 5.33652ZM24.9985 2.38159C27.0635 2.38159 29.1669 2.56212 31.2681 2.90999L7.10776 29.6289C5.28393 28.4496 3.7948 26.6758 3.00586 24.1689L22.4271 2.47892C23.2721 2.41637 24.129 2.38159 24.9985 2.38159ZM6.19799 9.53749C8.3708 7.08413 10.6351 5.89032 10.6555 5.88015C10.6754 5.87015 14.3462 3.62955 18.8076 2.95111L2.44666 21.2235C2.44444 21.1954 2.06767 14.2011 6.19799 9.53749ZM51.001 29.7344C49.3247 30.7954 46.9564 30.8983 43.962 30.0411C40.6123 29.0818 37.2548 29.1429 33.697 30.2264C30.5083 31.1978 27.0377 33.0464 23.0865 35.8778C18.9667 38.8305 12.7564 39.47 8.32031 37.3982C5.85853 36.2488 2.84359 33.7416 2.38776 28.3287C3.07334 29.3311 3.89848 30.2208 4.86303 30.9783C7.29257 32.886 10.5866 33.9366 14.1387 33.9366C17.8991 33.9366 21.6655 32.7796 24.4723 30.7623C30.3083 26.5676 34.84 24.6971 39.1662 24.6971C40.5444 24.6971 41.8784 24.8878 43.2445 25.2801C44.7766 25.7199 46.214 25.9432 47.5161 25.9433C47.5164 25.9433 47.5161 25.9433 47.5163 25.9433C50.0704 25.9433 52.1528 25.0955 53.6255 23.5227V25.3079C53.374 26.7483 52.7129 28.6509 51.001 29.7344Z" fill="#C72828"/>
</svg>
